HIERARCHY
ROOT Hips
{
    OFFSET 0.0 0.0 0.0
    CHANNELS 6 Xposition Yposition Zposition Zrotation Xrotation Yrotation
    JOINT LHipJoint
    {
        OFFSET 0.1 0.0 0.0
        CHANNELS 3 Zrotation Xrotation Yrotation
        JOINT LeftHip
        {
            OFFSET 0.1697809249162674 0.0 0.0
            CHANNELS 3 Zrotation Xrotation Yrotation
            JOINT LeftKnee
            {
                OFFSET 0.0 0.0 -0.31428951025009155
                CHANNELS 3 Zrotation Xrotation Yrotation
                JOINT LeftAnkle
                {
                    OFFSET 0.0 0.0 -0.5130666494369507
                    CHANNELS 3 Zrotation Xrotation Yrotation
                    End Site
                    {
                        OFFSET 0.0 -0.1 0.0
                    }
                }
            }
        }
    }
    JOINT lowerback
    {
        OFFSET 0.0 0.0 0.1
        CHANNELS 3 Zrotation Xrotation Yrotation
        JOINT Chest
        {
            OFFSET 0.0 0.0 0.2723461091518402
            CHANNELS 3 Zrotation Xrotation Yrotation
            JOINT Chest2
            {
                OFFSET 0.0 0.0 0.31228214502334595
                CHANNELS 3 Zrotation Xrotation Yrotation
                JOINT LeftCollar
                {
                    OFFSET 0.1 0.0 0.0
                    CHANNELS 3 Zrotation Xrotation Yrotation
                    JOINT LeftShoulder
                    {
                        OFFSET 0.2186739444732666 0.0 0.0
                        CHANNELS 3 Zrotation Xrotation Yrotation
                        JOINT LeftElbow
                        {
                            OFFSET 0.2778531610965729 0.0 0.0
                            CHANNELS 3 Zrotation Xrotation Yrotation
                            JOINT LeftWrist
                            {
                                OFFSET 0.3733416497707367 0.0 0.0
                                CHANNELS 3 Zrotation Xrotation Yrotation
                                End Site
                                {
                                    OFFSET 0.1 0.0 0.0
                                }
                            }
                        }
                    }
                }
                JOINT Neck
                {
                    OFFSET 0.0 0.0 0.1
                    CHANNELS 3 Zrotation Xrotation Yrotation
                    JOINT Head
                    {
                        OFFSET 0.0 0.0 0.2967161536216736
                        CHANNELS 3 Zrotation Xrotation Yrotation
                        End Site
                        {
                            OFFSET 0.0 0.0 0.1692984402179718
                        }
                    }
                }
                JOINT RightCollar
                {
                    OFFSET -0.1 0.0 0.0
                    CHANNELS 3 Zrotation Xrotation Yrotation
                    JOINT RightShoulder
                    {
                        OFFSET -0.2186739444732666 0.0 0.0
                        CHANNELS 3 Zrotation Xrotation Yrotation
                        JOINT RightElbow
                        {
                            OFFSET -0.2778531610965729 0.0 0.0
                            CHANNELS 3 Zrotation Xrotation Yrotation
                            JOINT RightWrist
                            {
                                OFFSET -0.3733416497707367 0.0 0.0
                                CHANNELS 3 Zrotation Xrotation Yrotation
                                End Site
                                {
                                    OFFSET -0.1 0.0 0.0
                                }
                            }
                        }
                    }
                }
            }
        }
    }
    JOINT RHipJoint
    {
        OFFSET -0.1 0.0 0.0
        CHANNELS 3 Zrotation Xrotation Yrotation
        JOINT RightHip
        {
            OFFSET -0.1697809249162674 0.0 0.0
            CHANNELS 3 Zrotation Xrotation Yrotation
            JOINT RightKnee
            {
                OFFSET 0.0 0.0 -0.31428951025009155
                CHANNELS 3 Zrotation Xrotation Yrotation
                JOINT RightAnkle
                {
                    OFFSET 0.0 0.0 -0.5130666494369507
                    CHANNELS 3 Zrotation Xrotation Yrotation
                    End Site
                    {
                        OFFSET 0.0 -0.1 0.0
                    }
                }
            }
        }
    }
}
MOTION
Frames: 4
Frame Time: 0.06666666666666667
-7.739014108665287e-06 0.2996216118335724 -7.99465924501419e-05 -2.859096088712201 -18.60084579132996 -14.71129156898746 -2.484808344893372e-16 -1.9935856082501936e-33 9.193790876105475e-16 26.109021577009173 50.09267088016115 13.916206060757125 -55.84000526001943 -37.92996559451663 -79.37940562958038 -3.975693351829396e-16 3.379339349054986e-15 2.1866313435061676e-15 -2.484808344893372e-16 -1.9935856082501936e-33 9.193790876105475e-16 -1.2706564526437059 -3.416779454918299 -0.820419588648887 -4.057338275038946 6.986016927408603e-07 -8.24422848576793e-07 -7.724336021587778e-32 -3.1805546814635168e-15 -2.782985346280577e-15 -4.015524332210294 -58.791329130974475 -143.73354727824974 -116.25372880266018 7.032074380736597e-07 -3.0944733958700806e-06 2.2069531490250793e-32 -1.5902773407317584e-15 1.5902773407317584e-15 -7.724336021587778e-32 -3.1805546814635168e-15 -2.782985346280577e-15 -20.74620045468447 -74.02342286805856 -13.276606656264425 -7.724336021587778e-32 -3.1805546814635168e-15 -2.782985346280577e-15 9.217365992022856 -41.99308948380588 128.7417109317813 61.67175527758893 -1.8117191823005142e-06 -2.049510073381789e-06 -1.6552148617688094e-31 -3.1805546814635168e-15 -5.9635400277440935e-15 -2.484808344893372e-16 -1.9935856082501936e-33 9.193790876105475e-16 -16.28190485603382 -37.312609988703045 40.79340617476295 48.402288783631036 17.766641043823018 -81.08987626574194 0.0 0.0 -4.671439688399539e-15
-3.0023657018318772e-06 0.299633651971817 -8.253527630586177e-05 -7.962996076548675 -15.903657615556956 -15.138310320468907 1.1034765745125397e-32 -3.1805546814635168e-15 3.975693351829396e-16 15.753862762986786 37.42969464689506 26.385343209634243 -38.56650637699981 -26.321619721916313 -75.26978653494099 5.963540027744093e-16 -8.793328953146801e-33 -1.689669674527493e-15 1.1034765745125397e-32 -3.1805546814635168e-15 3.975693351829396e-16 -1.2662336839133599 -3.5155494307164905 -1.2194170406194105 0.22462512523789122 -1.8446212659122088e-06 5.694171261688899e-07 0.0 0.0 -2.584200678689108e-15 -5.76117847247248 -59.593908964435364 -148.51437399721124 -119.30440643395313 1.8202368374048717e-06 1.3598302479786327e-06 4.770832022195277e-15 0.0 0.0 0.0 0.0 -2.584200678689108e-15 -15.506927299379592 -74.13582565463498 -10.934020383127203 0.0 0.0 -2.584200678689108e-15 6.901697391590577 -44.865289132502674 127.90577177203032 63.448464387754164 9.474160261210945e-07 3.058877570827536e-06 -4.770832022195275e-15 3.1805546814635168e-15 1.5902773407317584e-15 1.1034765745125397e-32 -3.1805546814635168e-15 3.975693351829396e-16 -20.51869945776965 -44.461862774339906 28.678130683431988 57.18882240601858 28.588233932117106 -80.1822041823754 -1.9878466759146977e-16 7.951386703658792e-16 -1.7766379665987615e-15
-3.102039045188576e-06 0.2996325194835663 -8.272611012216657e-05 -5.245590290651785 -16.222538510157367 -13.991252607233164 3.9756933518293955e-16 -2.758691436281349e-33 -7.951386703658791e-16 15.902661076669663 40.932040404580164 23.243448775926645 -42.898829461423254 -32.38874879852212 -75.74107134970467 -2.0375428428125655e-15 3.155706598014583e-15 1.453612881762623e-15 3.9756933518293955e-16 -2.758691436281349e-33 -7.951386703658791e-16 -1.248867681768817 -3.8921268245839227 -1.807972180668613 -1.15211798825577 -3.932889142973206e-08 4.9142323424267644e-08 -3.4483642953516864e-34 -9.939233379573487e-17 -3.975693351829395e-16 -3.829549814685281 -60.37600772264872 -146.49232536840324 -119.96484809985003 3.7479669018195993e-06 -6.492504496250188e-07 1.5902773407317582e-15 -2.2069531490250793e-32 -1.5902773407317582e-15 -3.4483642953516864e-34 -9.939233379573487e-17 -3.975693351829395e-16 -9.105548030006833 -74.25442726464429 -4.706999534229156 -3.4483642953516864e-34 -9.939233379573487e-17 -3.975693351829395e-16 2.121120691943764 -45.59814662871599 126.81154349311828 63.44882538085687 2.247661964087587e-06 -5.90883720124319e-07 3.1805546814635168e-15 3.1805546814635168e-15 2.3854160110976376e-15 3.9756933518293955e-16 -2.758691436281349e-33 -7.951386703658791e-16 -14.834393403122622 -38.94289836455161 34.06949972088284 48.33777423998977 25.70573496649327 -76.10681928186825 0.0 0.0 -9.367727460248012e-15
-1.1694224667735398e-05 0.29961925745010376 -8.183847239706665e-05 4.192309202025642 -19.51031087662452 -12.61595714007828 -3.4483642953516864e-34 9.939233379573492e-17 3.975693351829397e-16 18.105223574193992 49.30400148780318 9.68088545444116 -51.079108950105635 -49.88452693142754 -73.04160489187883 -1.5902773407317582e-15 -3.975693351829395e-16 -3.1805546814635164e-15 -3.4483642953516864e-34 9.939233379573492e-17 3.975693351829397e-16 -0.5505172217104036 -2.033938271931656 -0.22531804787719792 -8.545445676168509 1.9961732420662877e-06 1.383572530878412e-07 3.975693351829395e-16 1.034509288605506e-33 2.981770013872046e-16 -7.2913240407808795 -61.55208794403874 -145.41612571426205 -116.87445843311059 2.5679055104032286e-06 8.420864805372566e-07 6.361109362927033e-15 1.7655625192200634e-31 3.1805546814635164e-15 3.975693351829395e-16 1.034509288605506e-33 2.981770013872046e-16 -20.934427295594077 -76.43252083124364 -12.873808316026581 3.975693351829395e-16 1.034509288605506e-33 2.981770013872046e-16 -0.1347559527624751 -43.38833501573595 126.34049689068947 58.182009586431064 -6.257196006216055e-07 -1.837812471746638e-06 3.1805546814635164e-15 6.620859447075238e-32 2.385416011097637e-15 -3.4483642953516864e-34 9.939233379573492e-17 3.975693351829397e-16 -6.436124829445869 -23.065801585281523 46.49382718130037 29.32480312387721 14.002772069419334 -74.55901538729044 -2.758691436281349e-33 -3.975693351829396e-16 -7.951386703658792e-16
